<svg width="540" height="210" viewBox="0 0 540 210" fill="none" xmlns="http://www.w3.org/2000/svg">
<path d="M0 0H540V180H270V210H150V180H0V0ZM30 150H90V60H120V150H150V30H30V150ZM180 30V180H240V150H300V30H180ZM240 60H270V120H240V60ZM330 30V150H390V60H420V150H450V60H480V150H510V30H330Z" fill="#CB3837"/>
<path d="M30 150H90V60H120V150H150V30H30V150Z" fill="white"/>
<path d="M180 30V180H240V150H300V30H180ZM270 120H240V60H270V120Z" fill="white"/>
<path d="M330 30V150H390V60H420V150H450V60H480V150H510V30H330Z" fill="white"/>
</svg>
