<svg width="677" height="437" viewBox="0 0 677 437" fill="none" xmlns="http://www.w3.org/2000/svg">
<g clip-path="url(#clip0_492_258)">
<path d="M450.089 169.853C496.995 169.853 535.02 131.83 535.02 84.9265C535.02 38.0229 496.995 0 450.089 0L105.127 0C58.2216 0 20.197 38.0229 20.197 84.9265C20.197 131.83 58.2216 169.853 105.127 169.853L450.089 169.853Z" fill="url(#paint0_linear_492_258)"/>
</g>
<g clip-path="url(#clip1_492_258)">
<path d="M206.593 135.148C159.687 135.148 121.662 173.171 121.662 220.075C121.662 266.979 159.687 305.001 206.593 305.001H416.469C463.375 305.001 501.4 266.979 501.4 220.075C501.4 173.171 463.375 135.148 416.469 135.148L206.593 135.148Z" fill="url(#paint1_linear_492_258)"/>
<path d="M592.069 303.036C638.975 303.036 677 265.011 677 218.105C677 171.199 638.975 133.175 592.069 133.175C545.163 133.175 507.139 171.199 507.139 218.105C507.139 265.011 545.163 303.036 592.069 303.036Z" fill="url(#paint2_linear_492_258)"/>
</g>
<path d="M373.829 437.003C420.735 437.003 458.759 398.978 458.759 352.072C458.759 305.167 420.735 267.142 373.829 267.142C326.923 267.142 288.898 305.167 288.898 352.072C288.898 398.978 326.923 437.003 373.829 437.003Z" fill="url(#paint3_linear_492_258)"/>
<path d="M500.598 437.003C547.504 437.003 585.529 398.978 585.529 352.072C585.529 305.167 547.504 267.142 500.598 267.142C453.693 267.142 415.668 305.167 415.668 352.072C415.668 398.978 453.693 437.003 500.598 437.003Z" fill="url(#paint4_linear_492_258)"/>
<path d="M227.211 267.142C274.116 267.142 312.142 305.165 312.142 352.069C312.141 398.972 274.116 436.994 227.211 436.994H-2V267.142H227.211Z" fill="url(#paint5_linear_492_258)"/>
<defs>
<linearGradient id="paint0_linear_492_258" x1="61.2909" y1="84.9225" x2="450.763" y2="84.9225" gradientUnits="userSpaceOnUse">
<stop stop-color="#CCCCCC"/>
<stop offset="1" stop-color="white" stop-opacity="0"/>
</linearGradient>
<linearGradient id="paint1_linear_492_258" x1="471.087" y1="220.071" x2="183.802" y2="220.071" gradientUnits="userSpaceOnUse">
<stop stop-color="#808080"/>
<stop offset="1" stop-color="#808080" stop-opacity="0"/>
</linearGradient>
<linearGradient id="paint2_linear_492_258" x1="614.447" y1="218.105" x2="514.114" y2="218.105" gradientUnits="userSpaceOnUse">
<stop stop-color="#808080"/>
<stop offset="1" stop-color="#808080" stop-opacity="0"/>
</linearGradient>
<linearGradient id="paint3_linear_492_258" x1="396.207" y1="352.064" x2="295.874" y2="352.064" gradientUnits="userSpaceOnUse">
<stop stop-color="#666666"/>
<stop offset="1" stop-color="#666666" stop-opacity="0"/>
</linearGradient>
<linearGradient id="paint4_linear_492_258" x1="522.977" y1="352.064" x2="422.644" y2="352.064" gradientUnits="userSpaceOnUse">
<stop stop-color="#666666"/>
<stop offset="1" stop-color="#666666" stop-opacity="0"/>
</linearGradient>
<linearGradient id="paint5_linear_492_258" x1="262.899" y1="352.072" x2="-203.847" y2="352.072" gradientUnits="userSpaceOnUse">
<stop stop-color="#666666"/>
<stop offset="1" stop-color="#666666" stop-opacity="0"/>
</linearGradient>
<clipPath id="clip0_492_258">
<rect width="514.823" height="169.853" fill="white" transform="translate(20.1973)"/>
</clipPath>
<clipPath id="clip1_492_258">
<rect width="555.338" height="171.827" fill="white" transform="translate(121.662 133.175)"/>
</clipPath>
</defs>
</svg>
